<svg id="visual" viewBox="0 0 1280 9280" width="1280" height="9280" xmlns="http://www.w3.org/2000/svg" xmlns:xlink="http://www.w3.org/1999/xlink" version="1.1"><path d="M0 1486L116 1207L233 2507L349 1115L465 2321L582 1300L698 1022L815 1300L931 2321L1047 1393L1164 1022L1280 1300L1280 0L1164 0L1047 0L931 0L815 0L698 0L582 0L465 0L349 0L233 0L116 0L0 0Z" fill="#defcf9"></path><path d="M0 5383L116 3620L233 5569L349 3249L465 3899L582 3527L698 4919L815 3435L931 3713L1047 2971L1164 5198L1280 3620L1280 1298L1164 1020L1047 1391L931 2319L815 1298L698 1020L582 1298L465 2319L349 1113L233 2505L116 1205L0 1484Z" fill="#c3f2f6"></path><path d="M0 7425L116 6404L233 7054L349 6497L465 6961L582 6683L698 7518L815 6868L931 6590L1047 7147L1164 7982L1280 6404L1280 3618L1164 5196L1047 2969L931 3711L815 3433L698 4917L582 3525L465 3897L349 3247L233 5567L116 3618L0 5381Z" fill="#a9e7f7"></path><path d="M0 8075L116 7889L233 7796L349 7796L465 7703L582 7889L698 8631L815 7425L931 7425L1047 7703L1164 8539L1280 7703L1280 6402L1164 7980L1047 7145L931 6588L815 6866L698 7516L582 6681L465 6959L349 6495L233 7052L116 6402L0 7423Z" fill="#93dbfa"></path><path d="M0 9281L116 9281L233 9281L349 9281L465 9281L582 9281L698 9281L815 9281L931 9281L1047 9281L1164 9281L1280 9281L1280 7701L1164 8537L1047 7701L931 7423L815 7423L698 8629L582 7887L465 7701L349 7794L233 7794L116 7887L0 8073Z" fill="#85cdfd"></path></svg>