<svg id="visual" viewBox="0 0 1280 1200" width="1280" height="1200" xmlns="http://www.w3.org/2000/svg" xmlns:xlink="http://www.w3.org/1999/xlink" version="1.1"><path d="M0 193L116 85L233 169L349 85L465 205L582 109L698 157L815 169L931 145L1047 133L1164 121L1280 73L1280 0L1164 0L1047 0L931 0L815 0L698 0L582 0L465 0L349 0L233 0L116 0L0 0Z" fill="#fbf1d3"></path><path d="M0 409L116 313L233 277L349 253L465 325L582 337L698 289L815 325L931 373L1047 301L1164 241L1280 205L1280 71L1164 119L1047 131L931 143L815 167L698 155L582 107L465 203L349 83L233 167L116 83L0 191Z" fill="#faecc5"></path><path d="M0 865L116 673L233 481L349 469L465 781L582 709L698 769L815 733L931 673L1047 529L1164 553L1280 673L1280 203L1164 239L1047 299L931 371L815 323L698 287L582 335L465 323L349 251L233 275L116 311L0 407Z" fill="#fae6b8"></path><path d="M0 1009L116 1021L233 937L349 1069L465 1069L582 961L698 937L815 1045L931 1045L1047 913L1164 865L1280 877L1280 671L1164 551L1047 527L931 671L815 731L698 767L582 707L465 779L349 467L233 479L116 671L0 863Z" fill="#fae0aa"></path><path d="M0 1201L116 1201L233 1201L349 1201L465 1201L582 1201L698 1201L815 1201L931 1201L1047 1201L1164 1201L1280 1201L1280 875L1164 863L1047 911L931 1043L815 1043L698 935L582 959L465 1067L349 1067L233 935L116 1019L0 1007Z" fill="#fada9d"></path></svg>