<svg id="visual" viewBox="0 0 1280 1280" width="1280" height="1280" xmlns="http://www.w3.org/2000/svg" xmlns:xlink="http://www.w3.org/1999/xlink" version="1.1"><path d="M0 206L116 167L233 347L349 155L465 321L582 180L698 142L815 180L931 321L1047 193L1164 142L1280 180L1280 0L1164 0L1047 0L931 0L815 0L698 0L582 0L465 0L349 0L233 0L116 0L0 0Z" fill="#defcf9"></path><path d="M0 743L116 500L233 769L349 449L465 539L582 487L698 679L815 475L931 513L1047 411L1164 718L1280 500L1280 178L1164 140L1047 191L931 319L815 178L698 140L582 178L465 319L349 153L233 345L116 165L0 204Z" fill="#c3f2f6"></path><path d="M0 1025L116 884L233 974L349 897L465 961L582 923L698 1038L815 948L931 910L1047 987L1164 1102L1280 884L1280 498L1164 716L1047 409L931 511L815 473L698 677L582 485L465 537L349 447L233 767L116 498L0 741Z" fill="#a9e7f7"></path><path d="M0 1115L116 1089L233 1076L349 1076L465 1063L582 1089L698 1191L815 1025L931 1025L1047 1063L1164 1179L1280 1063L1280 882L1164 1100L1047 985L931 908L815 946L698 1036L582 921L465 959L349 895L233 972L116 882L0 1023Z" fill="#93dbfa"></path><path d="M0 1281L116 1281L233 1281L349 1281L465 1281L582 1281L698 1281L815 1281L931 1281L1047 1281L1164 1281L1280 1281L1280 1061L1164 1177L1047 1061L931 1023L815 1023L698 1189L582 1087L465 1061L349 1074L233 1074L116 1087L0 1113Z" fill="#85cdfd"></path></svg>